<svg width="301" height="349" viewBox="0 0 301 349" fill="none" xmlns="http://www.w3.org/2000/svg">
<path d="M150.054 348.735C232.927 348.735 300.108 310.571 300.108 263.493C300.108 216.415 232.927 178.25 150.054 178.25C67.1815 178.25 0 216.415 0 263.493C0 310.571 67.1815 348.735 150.054 348.735Z" fill="#F5F5F5"/>
<path d="M212.498 317.24L100.489 252.565C99.5036 251.998 98.6852 251.18 98.1162 250.196C97.5472 249.211 97.2476 248.094 97.2476 246.957C97.2476 245.82 97.5472 244.703 98.1162 243.718C98.6852 242.734 99.5036 241.916 100.489 241.349L111.538 234.381C113.446 233.282 115.608 232.704 117.809 232.704C120.01 232.704 122.173 233.282 124.08 234.381L236.105 299.063C237.09 299.631 237.909 300.448 238.478 301.432C239.047 302.417 239.346 303.534 239.346 304.671C239.346 305.808 239.047 306.926 238.478 307.91C237.909 308.895 237.09 309.712 236.105 310.28L225.056 317.24C223.147 318.344 220.982 318.926 218.777 318.926C216.572 318.926 214.407 318.344 212.498 317.24Z" fill="#E0E0E0"/>
<path d="M42.1885 258.277C55.613 258.277 66.4957 252.027 66.4957 244.318C66.4957 236.609 55.613 230.36 42.1885 230.36C28.764 230.36 17.8813 236.609 17.8813 244.318C17.8813 252.027 28.764 258.277 42.1885 258.277Z" fill="#E6E6E6"/>
<path d="M252.218 261.474L262.879 267.605C262.879 267.605 257.435 250.494 260.336 233.246C261.432 226.727 263.786 223.491 264.608 221.747C265.43 220.003 271.804 209.228 266.131 204.293C260.458 199.359 247.261 209.281 247.977 235.835C248.302 244.526 249.727 253.141 252.218 261.474Z" fill="#001A41"/>
<path opacity="0.5" d="M252.218 261.474L262.879 267.605C262.879 267.605 257.435 250.494 260.336 233.246C261.432 226.727 263.786 223.491 264.608 221.747C265.43 220.003 271.804 209.228 266.131 204.293C260.458 199.359 247.261 209.281 247.977 235.835C248.302 244.526 249.727 253.141 252.218 261.474Z" fill="black"/>
<path d="M257.175 264.703C257.098 264.705 257.021 264.682 256.957 264.638C256.893 264.595 256.844 264.532 256.817 264.459C256.779 264.345 252.705 253.212 252.835 235.317C252.964 217.421 262.369 207.705 262.46 207.613C262.495 207.578 262.537 207.549 262.584 207.53C262.63 207.511 262.68 207.501 262.73 207.501C262.781 207.501 262.83 207.511 262.877 207.53C262.923 207.549 262.965 207.578 263.001 207.613C263.036 207.649 263.065 207.691 263.084 207.737C263.103 207.784 263.113 207.833 263.113 207.884C263.113 207.934 263.103 207.984 263.084 208.03C263.065 208.076 263.036 208.118 263.001 208.154C262.909 208.245 253.726 217.673 253.596 235.324C253.467 252.976 257.487 264.094 257.533 264.2C257.567 264.295 257.563 264.4 257.52 264.491C257.477 264.583 257.399 264.653 257.305 264.688C257.263 264.701 257.219 264.706 257.175 264.703Z" fill="white"/>
<path d="M256.666 264.094L271.241 272.471C272.76 273.368 274.561 273.661 276.286 273.289C278.01 272.918 279.532 271.911 280.547 270.468C281.512 268.967 281.919 267.174 281.697 265.404C280.996 257.834 277.706 256.091 281.735 252.717C285.763 249.344 286.814 249.108 286.586 245.864C286.357 242.62 284.141 241.203 283.09 239.924C282.039 238.645 279.13 235.964 281.11 232.004C283.09 228.044 285.794 224.214 281.697 222.463C279.252 221.412 275.178 222.813 272.498 225.722C269.817 228.631 267.609 230.725 265.043 231.426C262.476 232.126 257.131 232.24 257.359 236.665C257.587 241.089 258.76 242.604 257.709 244.577C255.729 248.262 247.117 250.356 256.666 264.094Z" fill="#001A41"/>
<path d="M263.87 268.602C263.775 268.599 263.684 268.562 263.614 268.498C263.544 268.434 263.5 268.346 263.489 268.252C263.489 267.993 261.25 241.858 279.222 224.466C279.296 224.404 279.39 224.374 279.486 224.379C279.582 224.385 279.672 224.427 279.739 224.496C279.805 224.565 279.843 224.657 279.845 224.753C279.846 224.849 279.811 224.942 279.747 225.014C262.035 242.155 264.228 267.925 264.25 268.184C264.259 268.283 264.228 268.383 264.164 268.46C264.099 268.536 264.008 268.585 263.908 268.595L263.87 268.602Z" fill="white"/>
<path d="M266.754 246.107C266.658 246.108 266.566 246.072 266.495 246.007C266.425 245.942 266.381 245.853 266.373 245.757C266.214 243.732 265.644 241.76 264.697 239.962C263.75 238.165 262.448 236.579 260.868 235.302C260.827 235.273 260.792 235.236 260.765 235.193C260.738 235.151 260.72 235.104 260.711 235.054C260.703 235.005 260.704 234.954 260.715 234.905C260.726 234.856 260.747 234.809 260.776 234.769C260.805 234.728 260.841 234.693 260.882 234.666C260.924 234.639 260.971 234.621 261.02 234.612C261.069 234.604 261.119 234.605 261.167 234.616C261.216 234.627 261.262 234.648 261.302 234.677C262.985 236.012 264.373 237.682 265.377 239.582C266.381 241.481 266.98 243.568 267.135 245.711C267.143 245.813 267.111 245.914 267.046 245.993C266.98 246.071 266.886 246.12 266.785 246.13L266.754 246.107Z" fill="white"/>
<path d="M265.514 250.593C265.421 250.594 265.332 250.561 265.262 250.502C265.187 250.434 265.14 250.34 265.133 250.239C265.126 250.138 265.159 250.038 265.224 249.961C265.407 249.748 269.907 244.783 280.454 246.1C280.554 246.113 280.645 246.166 280.706 246.246C280.767 246.326 280.795 246.427 280.782 246.527C280.768 246.627 280.716 246.718 280.637 246.781C280.557 246.843 280.456 246.872 280.355 246.862C270.227 245.59 265.833 250.418 265.788 250.463C265.753 250.502 265.711 250.534 265.664 250.556C265.617 250.578 265.566 250.591 265.514 250.593Z" fill="white"/>
<path d="M209.086 309.51L110.578 252.633C103.626 248.62 97.9907 237.852 97.9907 228.585V17.6485C97.9907 8.38097 103.626 4.12418 110.578 8.1373L209.086 65.0139C216.039 69.0271 221.674 79.7947 221.674 89.0622V299.998C221.674 309.258 216.039 313.523 209.086 309.51Z" fill="#455A64"/>
<path d="M220.433 58.3817L121.917 1.50508C118.947 -0.2083 116.221 -0.406292 114.066 0.644582C113.802 0.776707 113.548 0.926824 113.304 1.09387L102.263 7.51334C104.486 6.18071 107.395 6.2797 110.586 8.12254L209.094 64.9992C216.046 69.0123 221.682 79.78 221.682 89.0474V299.984C221.682 304.888 220.105 308.36 217.592 310.005L228.489 303.662C231.269 302.184 233.058 298.567 233.058 293.382V82.4452C233.058 73.1625 227.385 62.3948 220.433 58.3817Z" fill="#37474F"/>
<path d="M221.674 89.0479V299.984C221.674 304.888 220.098 308.361 217.585 310.006L228.49 303.662C231.269 302.185 233.059 298.568 233.059 293.382V82.4457L221.712 89.0327L221.674 89.0479Z" fill="#263238"/>
<path d="M233.02 98.8097L221.673 105.359V110.476L233.02 103.919V98.8097Z" fill="#37474F"/>
<path d="M228.048 132.841C227.035 133.427 226.213 132.803 226.213 131.455V120.451C226.223 119.763 226.395 119.088 226.713 118.478C227.032 117.868 227.489 117.342 228.048 116.941C229.061 116.354 229.883 116.941 229.883 118.327V129.33C229.873 130.018 229.702 130.694 229.383 131.304C229.064 131.914 228.607 132.44 228.048 132.841Z" fill="#37474F"/>
<path d="M226.205 131.486V120.452C226.216 119.764 226.387 119.088 226.706 118.478C227.024 117.869 227.482 117.342 228.041 116.941C228.208 116.824 228.402 116.753 228.605 116.734C228.808 116.716 229.012 116.75 229.198 116.835L227.82 116.126C227.631 116.036 227.422 115.996 227.213 116.012C227.005 116.028 226.804 116.099 226.632 116.218C226.072 116.619 225.614 117.145 225.294 117.755C224.974 118.364 224.801 119.04 224.789 119.728V130.724C224.76 131.002 224.803 131.283 224.912 131.54C225.021 131.797 225.194 132.022 225.413 132.194L226.853 132.956C226.624 132.791 226.443 132.567 226.329 132.309C226.215 132.05 226.172 131.766 226.205 131.486Z" fill="#455A64"/>
<path d="M228.048 159.471C227.035 160.058 226.213 159.471 226.213 158.086V147.082C226.224 146.394 226.395 145.718 226.714 145.109C227.033 144.499 227.49 143.973 228.048 143.571C229.061 142.985 229.883 143.571 229.883 144.965V155.961C229.874 156.649 229.703 157.325 229.385 157.935C229.066 158.545 228.608 159.071 228.048 159.471Z" fill="#37474F"/>
<path d="M226.204 158.085V147.081C226.215 146.393 226.387 145.718 226.705 145.108C227.024 144.498 227.481 143.972 228.039 143.57C228.207 143.456 228.402 143.386 228.604 143.367C228.807 143.348 229.011 143.382 229.197 143.464L227.819 142.748C227.631 142.653 227.421 142.612 227.212 142.628C227.002 142.644 226.801 142.717 226.631 142.839C226.07 143.239 225.611 143.765 225.291 144.375C224.971 144.985 224.798 145.661 224.788 146.35V157.376C224.759 157.654 224.801 157.935 224.91 158.192C225.019 158.449 225.192 158.674 225.412 158.846L226.852 159.608C226.613 159.439 226.426 159.207 226.312 158.938C226.198 158.669 226.16 158.374 226.204 158.085Z" fill="#455A64"/>
<path d="M205.644 70.9315L108.841 15.022C108.437 14.7896 107.98 14.6668 107.514 14.666C107.047 14.6651 106.589 14.7861 106.184 15.017C105.78 15.248 105.442 15.5807 105.206 15.9823C104.969 16.3839 104.842 16.8404 104.836 17.3065V228.585C104.836 235.637 109.839 244.295 115.946 247.821L210.373 302.367C210.82 302.625 211.328 302.76 211.845 302.76C212.361 302.76 212.869 302.623 213.316 302.365C213.764 302.107 214.135 301.735 214.394 301.288C214.652 300.84 214.789 300.333 214.789 299.816V86.7936C214.827 80.9757 210.7 73.8405 205.644 70.9315Z" fill="#001A41"/>
<path opacity="0.9" d="M205.644 70.9315L108.841 15.022C108.437 14.7896 107.98 14.6668 107.514 14.666C107.047 14.6651 106.589 14.7861 106.184 15.017C105.78 15.248 105.442 15.5807 105.206 15.9823C104.969 16.3839 104.842 16.8404 104.836 17.3065V228.585C104.836 235.637 109.839 244.295 115.946 247.821L210.373 302.367C210.82 302.625 211.328 302.76 211.845 302.76C212.361 302.76 212.869 302.623 213.316 302.365C213.764 302.107 214.135 301.735 214.394 301.288C214.652 300.84 214.789 300.333 214.789 299.816V86.7936C214.827 80.9757 210.7 73.8405 205.644 70.9315Z" fill="white"/>
<path d="M137.794 29.6198L139.295 35.9326L171.384 54.4371L176.928 51.4825L137.794 29.6198Z" fill="#455A64"/>
<path d="M147.23 35.7197C147.23 36.7705 146.468 37.1894 145.585 36.6715C145.111 36.3567 144.717 35.935 144.435 35.4404C144.154 34.9458 143.992 34.392 143.963 33.8235C143.963 32.7803 144.724 32.3538 145.608 32.8793C146.082 33.1925 146.476 33.6127 146.757 34.1061C147.039 34.5995 147.201 35.1522 147.23 35.7197Z" fill="#263238"/>
<path d="M168.849 49.0838C168.673 49.0824 168.501 49.038 168.346 48.9544L151.959 39.8163C151.727 39.6805 151.558 39.4595 151.487 39.2006C151.417 38.9418 151.45 38.6656 151.58 38.431C151.711 38.1963 151.927 38.022 152.184 37.945C152.441 37.8681 152.718 37.8947 152.956 38.0192L169.351 47.1572C169.551 47.268 169.707 47.4419 169.797 47.6515C169.887 47.8612 169.904 48.0947 169.847 48.3153C169.789 48.5359 169.66 48.7312 169.479 48.8703C169.299 49.0094 169.077 49.0845 168.849 49.0838Z" fill="#263238"/>
<path d="M125.138 58.9907C124.14 58.412 123.417 58.9146 123.417 60.1863C123.417 60.8222 123.574 61.4483 123.874 62.009C124.175 62.5696 124.609 63.0474 125.138 63.3998C125.421 63.5719 125.747 63.6629 126.078 63.6629C126.41 63.6629 126.735 63.5719 127.019 63.3998L128.61 66.2783C128.051 66.5873 127.416 66.7345 126.777 66.7036C126.138 66.6726 125.521 66.4648 124.993 66.1032C123.7 65.3121 122.622 64.2145 121.855 62.9075C121.087 61.6006 120.653 60.1245 120.592 58.61C120.592 55.7848 122.488 54.8025 125.1 56.3255C126.575 57.2753 127.783 58.5858 128.61 60.133L127.019 61.3971C126.626 60.4365 125.975 59.6035 125.138 58.9907Z" fill="#001A41"/>
<path d="M137.771 68.5319C137.771 71.3799 135.845 72.3394 133.202 70.8164C131.872 70.0217 130.759 68.9107 129.962 67.5822C129.165 66.2537 128.709 64.7489 128.633 63.2014C128.633 60.3534 130.56 59.3939 133.202 60.9169C134.535 61.708 135.651 62.8182 136.448 64.1474C137.246 65.4767 137.701 66.9834 137.771 68.5319ZM131.458 64.8996C131.472 65.5534 131.64 66.1947 131.95 66.7706C132.26 67.3465 132.702 67.8406 133.24 68.2121C134.185 68.7604 134.946 68.2121 134.946 66.9175C134.944 66.2785 134.787 65.6494 134.49 65.0834C134.193 64.5175 133.765 64.0313 133.24 63.6659C132.281 63.11 131.458 63.5822 131.458 64.8996Z" fill="#001A41"/>
<path d="M140.841 65.5094L144.13 72.3629V67.4284L146.62 68.8676V78.4701L144.336 77.1451L141.062 70.3525V75.2566L138.556 73.8097V64.1844L140.841 65.5094Z" fill="#001A41"/>
<path d="M154.76 73.5433V76.0563L152.385 74.6856V81.7828L149.636 80.1913V73.0941L147.275 71.731V69.2256L154.76 73.5433Z" fill="#001A41"/>
<path d="M160.122 84.89L157 83.0853L156.573 84.197L153.756 82.5674L157.266 74.9905L160.092 76.6201L163.473 88.1797L160.541 86.4892L160.122 84.89ZM159.444 82.2248L158.591 78.9427L157.716 81.2272L159.444 82.2248Z" fill="#001A41"/>
<path d="M167.836 83.641C166.838 83.0699 166.115 83.5649 166.115 84.8442C166.116 85.4799 166.274 86.1055 166.574 86.6659C166.874 87.2263 167.307 87.7043 167.836 88.0577C168.121 88.2281 168.448 88.318 168.78 88.318C169.112 88.318 169.439 88.2281 169.724 88.0577L171.316 90.9362C170.753 91.2416 170.118 91.3868 169.479 91.3559C168.84 91.325 168.221 91.1193 167.691 90.7611C166.397 89.9693 165.318 88.8705 164.551 87.5621C163.783 86.2537 163.35 84.7761 163.29 83.2602C163.29 80.4351 165.193 79.4527 167.798 80.9757C169.271 81.9302 170.481 83.2394 171.316 84.7833L169.724 86.0397C169.323 85.0842 168.67 84.2552 167.836 83.641Z" fill="#001A41"/>
<path d="M178.824 87.4403V89.9456L176.449 88.5749V95.695L173.7 94.1034V87.0062L171.339 85.6431V83.1378L178.824 87.4403Z" fill="#001A41"/>
<path d="M186.95 99.2287C187.628 99.617 188.146 99.3124 188.146 98.3606V92.8244L190.902 94.4084V99.9445C190.902 102.496 189.379 103.257 186.942 101.863C185.768 101.212 184.782 100.269 184.076 99.1264C183.371 97.9837 182.971 96.679 182.914 95.3374V89.8013L185.671 91.3928V96.9289C185.681 97.3873 185.803 97.8362 186.026 98.2369C186.249 98.6375 186.566 98.9779 186.95 99.2287Z" fill="#001A41"/>
<path d="M195.342 99.2593C195.029 99.0842 194.831 99.0766 194.831 99.3659C194.831 100.569 199.134 102.305 199.134 105.785C199.134 107.918 197.512 107.925 195.639 106.844C193.992 105.835 192.573 104.494 191.473 102.907L192.494 101.11C193.331 102.406 194.406 103.533 195.661 104.43C196.065 104.666 196.324 104.666 196.324 104.323C196.324 103.074 192.014 101.414 192.014 98.0409C192.014 96.1219 193.415 95.7564 195.578 96.9748C196.971 97.8174 198.197 98.9094 199.195 100.196L198.197 102.039C197.373 100.989 196.413 100.055 195.342 99.2593Z" fill="#001A41"/>
<path d="M111.287 106.311C114.377 102.516 115.932 97.7008 115.646 92.8156C115.36 87.9303 113.253 83.3296 109.742 79.9213C106.23 76.5129 101.569 74.5443 96.6774 74.4039C91.7858 74.2636 87.0192 75.9616 83.3181 79.163C79.6169 82.3645 77.2501 86.8368 76.6844 91.6976C76.1187 96.5584 77.3954 101.455 80.2625 105.42C83.1295 109.386 87.3788 112.133 92.172 113.12C96.9651 114.107 101.954 113.261 106.154 110.75L115.688 114.893L111.287 106.311Z" fill="#001A41"/>
<path opacity="0.4" d="M111.287 106.311C114.377 102.516 115.932 97.7008 115.646 92.8156C115.36 87.9303 113.253 83.3296 109.742 79.9213C106.23 76.5129 101.569 74.5443 96.6774 74.4039C91.7858 74.2636 87.0192 75.9616 83.3181 79.163C79.6169 82.3645 77.2501 86.8368 76.6844 91.6976C76.1187 96.5584 77.3954 101.455 80.2625 105.42C83.1295 109.386 87.3788 112.133 92.172 113.12C96.9651 114.107 101.954 113.261 106.154 110.75L115.688 114.893L111.287 106.311Z" fill="black"/>
<path d="M88.8681 92.9082C88.8681 92.6112 88.6549 92.4437 88.2665 92.4437C87.3657 92.5617 86.5243 92.9584 85.8601 93.5784L84.7788 91.4766C85.917 90.6201 87.292 90.1361 88.7158 90.0907C90.5434 90.0907 91.9293 91.0502 91.9293 92.4818C91.9293 93.5022 91.1678 94.4845 90.1931 95.4669L88.83 96.8147H92.0512V99.0536H85.1291V97.2183L88.2132 94.0276C88.5453 93.7339 88.7747 93.3416 88.8681 92.9082Z" fill="white"/>
<path d="M97.6865 90.2204L95.5847 95.2615H96.4452V93.5634H99.0953V95.2615H100.1V97.3405H99.0953V99.0538H96.4452V97.3405H92.6758V95.4519L94.9603 90.2204H97.6865Z" fill="white"/>
<path d="M108.279 94.6596V99.0534H105.446V95.4744C105.463 95.3578 105.454 95.2391 105.42 95.1263C105.387 95.0135 105.33 94.9092 105.252 94.8204C105.175 94.7316 105.08 94.6604 104.973 94.6116C104.866 94.5629 104.749 94.5377 104.632 94.5377C104.076 94.5377 103.725 94.9718 103.725 95.6419V99.0534H100.893V89.7174H103.725V93.1518C103.947 92.8015 104.256 92.5149 104.622 92.32C104.987 92.1251 105.398 92.0286 105.812 92.04C106.151 92.0312 106.489 92.0943 106.802 92.2249C107.116 92.3555 107.398 92.5508 107.631 92.7981C107.864 93.0453 108.042 93.3389 108.154 93.6597C108.265 93.9805 108.308 94.3212 108.279 94.6596Z" fill="white"/>
<path d="M200.649 165.418V260.035C200.65 261.105 200.37 262.157 199.836 263.084C199.302 264.011 198.533 264.782 197.606 265.318C196.68 265.853 195.629 266.136 194.559 266.136C193.489 266.136 192.437 265.855 191.511 265.32L140.551 235.895L131.519 230.687C128.409 228.888 125.826 226.305 124.027 223.196C122.229 220.086 121.278 216.559 121.27 212.966V118.342C121.268 117.272 121.548 116.22 122.082 115.293C122.616 114.366 123.385 113.595 124.312 113.06C125.238 112.524 126.289 112.241 127.359 112.241C128.429 112.241 129.481 112.522 130.408 113.057L190.414 147.698C193.525 149.493 196.109 152.076 197.906 155.187C199.702 158.297 200.648 161.826 200.649 165.418Z" fill="#001A41"/>
<path opacity="0.5" d="M200.649 165.418V260.035C200.65 261.105 200.37 262.157 199.836 263.084C199.302 264.011 198.533 264.782 197.606 265.318C196.68 265.853 195.629 266.136 194.559 266.136C193.489 266.136 192.437 265.855 191.511 265.32L140.551 235.895L131.519 230.687C128.409 228.888 125.826 226.305 124.027 223.196C122.229 220.086 121.278 216.559 121.27 212.966V118.342C121.268 117.272 121.548 116.22 122.082 115.293C122.616 114.366 123.385 113.595 124.312 113.06C125.238 112.524 126.289 112.241 127.359 112.241C128.429 112.241 129.481 112.522 130.408 113.057L190.414 147.698C193.525 149.493 196.109 152.076 197.906 155.187C199.702 158.297 200.648 161.826 200.649 165.418Z" fill="white"/>
<path d="M171.293 221.404C171.293 221.404 180.835 237.228 173.943 255.07L140.528 235.895L171.293 221.404Z" fill="#263238"/>
<path d="M186.51 150.308C187.232 144.443 183.063 139.104 177.198 138.381C171.334 137.659 165.994 141.828 165.272 147.693C164.55 153.557 168.719 158.897 174.583 159.619C180.448 160.341 185.788 156.173 186.51 150.308Z" fill="#263238"/>
<path d="M175.946 118.989C175.946 118.989 179.228 113.659 180.233 114.047C181.238 114.435 179.578 119.515 179.578 119.515C179.578 119.515 184.543 120.55 183.622 121.799C182.7 123.048 176.631 122.751 176.631 122.751L175.946 118.989Z" fill="#263238"/>
<path d="M178.23 132.727C175.946 149.891 161.477 149.891 161.477 149.891L131.17 136.549C131.17 136.549 128.885 134.547 128.185 129.947C127.916 128.063 127.916 126.15 128.185 124.266C128.185 124.266 128.185 124.228 128.185 124.213C129.152 116.994 134.551 109.234 146.308 106.851C148.885 106.331 151.508 106.075 154.137 106.089C155.408 106.085 156.679 106.148 157.944 106.28C167.082 107.178 173.486 111.443 176.54 118.075C177.227 119.572 177.738 121.144 178.063 122.759C178.683 126.048 178.739 129.419 178.23 132.727Z" fill="#263238"/>
<path d="M105.469 165.928C105.469 165.928 94.7085 165.555 90.5659 176.041C90.5659 176.041 95.1349 179.125 101.128 176.041C107.121 172.957 105.469 165.928 105.469 165.928Z" fill="#001A41"/>
<path opacity="0.5" d="M105.469 165.928C105.469 165.928 94.7085 165.555 90.5659 176.041C90.5659 176.041 95.1349 179.125 101.128 176.041C107.121 172.957 105.469 165.928 105.469 165.928Z" fill="black"/>
<path d="M105.164 170.977C105.164 170.977 102.118 157.742 100.511 157.582C98.9047 157.422 98.5924 161.618 98.7219 163.987L94.9144 155.793C94.7936 155.538 94.6219 155.311 94.41 155.125C94.198 154.939 93.9503 154.799 93.682 154.713C93.4138 154.626 93.1307 154.596 92.8502 154.623C92.5697 154.651 92.2977 154.735 92.0511 154.871C88.2436 156.965 81.5652 163.332 95.6454 179.072L105.164 170.977Z" fill="#945959"/>
<path d="M144.153 161.824L141.869 161.527C139.567 161.221 137.224 161.535 135.083 162.434C132.942 163.333 131.079 164.786 129.685 166.644L116.092 184.737L105.431 165.928C105.431 165.928 104.152 178.721 90.5283 176.041L105.157 200.66C106.083 202.219 107.371 203.531 108.913 204.484C110.455 205.438 112.204 206.005 114.012 206.137C115.82 206.27 117.633 205.963 119.297 205.245C120.961 204.526 122.427 203.415 123.57 202.008L136.089 186.618L144.153 161.824Z" fill="#001A41"/>
<path d="M173.166 204.049C170.12 211.77 169.785 213.278 171.643 217.139C172.937 219.99 173.957 222.958 174.689 226.003C174.689 226.003 160.571 241.827 140.475 235.902L131.443 230.694C129.565 229.611 127.873 228.232 126.433 226.612L129.182 206.112C129.32 205.033 129.211 203.937 128.862 202.906L125.976 194.446C124.567 190.314 124.358 185.867 125.371 181.621C126.385 177.375 128.58 173.502 131.702 170.451L141.404 160.971L166.884 164.23L170.691 165.319C173.184 166.04 175.333 167.636 176.743 169.814C178.153 171.992 178.73 174.606 178.367 177.175C177.118 186.161 175.078 199.198 173.166 204.049Z" fill="#001A41"/>
<path opacity="0.5" d="M173.166 204.049C170.12 211.77 169.785 213.278 171.643 217.139C172.937 219.99 173.957 222.958 174.689 226.003C174.689 226.003 160.571 241.827 140.475 235.902L131.443 230.694C129.565 229.611 127.873 228.232 126.433 226.612L129.182 206.112C129.32 205.033 129.211 203.937 128.862 202.906L125.976 194.446C124.567 190.314 124.358 185.867 125.371 181.621C126.385 177.375 128.58 173.502 131.702 170.451L141.404 160.971L166.884 164.23L170.691 165.319C173.184 166.04 175.333 167.636 176.743 169.814C178.153 171.992 178.73 174.606 178.367 177.175C177.118 186.161 175.078 199.198 173.166 204.049Z" fill="black"/>
<path d="M157.8 180.983L152.698 176.635C152.157 176.173 151.506 175.859 150.807 175.726C150.109 175.592 149.388 175.643 148.715 175.873L142.547 177.998L141.717 174.541C141.587 174.003 141.35 173.497 141.02 173.053C140.689 172.609 140.272 172.237 139.794 171.959C139.316 171.681 138.787 171.502 138.237 171.434C137.688 171.366 137.131 171.41 136.6 171.563L133.927 172.325L138.45 163.659C139.927 160.837 142.202 158.511 144.991 156.973L146.766 155.998L161.425 156.76C161.425 156.76 166.885 159.044 166.885 164.184L157.8 180.937" fill="#001A41"/>
<path d="M161.485 163.255L146.788 174.708V138.239H161.485V163.255Z" fill="#945959"/>
<path d="M147.017 160.247L142.547 178.028L161.425 163.255L147.017 160.247Z" fill="#945959"/>
<path d="M146.788 157.604C150.056 156.391 153.043 154.526 155.568 152.123C158.094 149.719 160.104 146.827 161.477 143.623V138.239H146.78L146.788 157.604Z" fill="#703838"/>
<path d="M149.956 111.215C144.382 111.215 132.533 114.321 131.162 128.912C129.791 143.502 131.116 154.803 138.64 155.9C146.164 156.996 163.648 151.536 165.993 132.651C168.339 113.766 155.385 111.215 149.956 111.215Z" fill="#945959"/>
<path d="M141.183 135.087V143.685L136.142 142.139L141.183 135.087Z" fill="#703838"/>
<path d="M146.788 138.324C147.755 138.324 148.539 137.54 148.539 136.572C148.539 135.605 147.755 134.821 146.788 134.821C145.82 134.821 145.036 135.605 145.036 136.572C145.036 137.54 145.82 138.324 146.788 138.324Z" fill="#263238"/>
<path d="M137.01 135.354C137.009 135.7 136.905 136.038 136.711 136.325C136.518 136.612 136.244 136.835 135.924 136.967C135.604 137.098 135.252 137.132 134.912 137.063C134.573 136.995 134.262 136.827 134.018 136.582C133.773 136.337 133.607 136.025 133.54 135.685C133.473 135.346 133.509 134.994 133.641 134.674C133.774 134.355 133.999 134.082 134.286 133.889C134.574 133.697 134.913 133.595 135.259 133.595C135.489 133.595 135.718 133.64 135.931 133.729C136.144 133.817 136.337 133.947 136.5 134.11C136.663 134.274 136.792 134.468 136.879 134.681C136.967 134.895 137.011 135.123 137.01 135.354Z" fill="#263238"/>
<path d="M133.119 131.698L136.545 129.665C136.545 129.665 135.236 128.302 133.926 129.117C132.616 129.932 133.119 131.698 133.119 131.698Z" fill="#263238"/>
<path d="M138.814 147.172C140.483 147.294 142.144 146.848 143.528 145.908C143.528 145.908 143.856 148.398 141.769 148.87C139.683 149.342 138.814 147.172 138.814 147.172Z" fill="#703838"/>
<path d="M135.822 116.179C135.822 116.179 137.916 136.321 165.308 136.953C165.308 136.953 173.585 116.933 157.228 110.43C140.871 103.927 135.822 116.179 135.822 116.179Z" fill="#263238"/>
<path d="M173.372 133.938L170.007 131.988C168.727 131.227 166.961 131.333 165.004 132.46C161.12 134.699 157.967 140.159 157.967 144.644C157.967 146.891 158.729 148.452 160.039 149.213L163.343 151.117L163.534 151.224L163.648 151.292C164.897 151.901 166.565 151.757 168.4 150.698C172.284 148.414 175.436 142.999 175.436 138.514C175.413 136.245 174.629 134.676 173.372 133.938Z" fill="#001A41"/>
<path d="M173.345 145.407C176.092 140.651 176.092 135.509 173.345 133.924C170.599 132.338 166.147 134.909 163.4 139.666C160.654 144.422 160.654 149.564 163.4 151.149C166.146 152.735 170.599 150.164 173.345 145.407Z" fill="#001A41"/>
<path opacity="0.5" d="M173.345 145.407C176.092 140.651 176.092 135.509 173.345 133.924C170.599 132.338 166.147 134.909 163.4 139.666C160.654 144.422 160.654 149.564 163.4 151.149C166.146 152.735 170.599 150.164 173.345 145.407Z" fill="black"/>
<path d="M174.72 138.164L172.435 136.831C171.567 136.313 170.357 136.382 169.016 137.151C167.616 138.066 166.451 139.298 165.615 140.746C164.779 142.195 164.296 143.82 164.204 145.49C164.204 147.013 164.744 148.101 165.62 148.604L167.905 149.906C167.945 149.936 167.988 149.961 168.034 149.982L168.11 150.028C168.646 150.231 169.223 150.3 169.791 150.228C170.359 150.157 170.901 149.947 171.369 149.617C172.768 148.703 173.933 147.472 174.769 146.025C175.605 144.578 176.089 142.955 176.182 141.286C176.121 139.74 175.588 138.666 174.72 138.164Z" fill="#001A41"/>
<path d="M176.121 141.271C176.028 142.94 175.544 144.563 174.708 146.01C173.872 147.457 172.707 148.688 171.308 149.602C168.643 151.125 166.488 149.891 166.488 146.822C166.578 145.152 167.062 143.527 167.9 142.079C168.737 140.632 169.905 139.402 171.308 138.492C173.966 136.953 176.121 138.195 176.121 141.271Z" fill="#001A41"/>
<path opacity="0.3" d="M176.121 141.271C176.028 142.94 175.544 144.563 174.708 146.01C173.872 147.457 172.707 148.688 171.308 149.602C168.643 151.125 166.488 149.891 166.488 146.822C166.578 145.152 167.062 143.527 167.9 142.079C168.737 140.632 169.905 139.402 171.308 138.492C173.966 136.953 176.121 138.195 176.121 141.271Z" fill="black"/>
<path d="M162.916 107.285C160.733 105.599 158.06 104.671 155.301 104.643H154.624C151.83 104.612 149.042 104.868 146.3 105.404C146.803 105.404 147.305 105.404 147.823 105.404H146.3V106.82H147.717C152.598 106.986 157.224 109.044 160.616 112.558C164.008 116.073 165.901 120.768 165.894 125.652V131.645C165.894 131.882 165.943 132.117 166.039 132.333C166.135 132.55 166.276 132.744 166.452 132.902C166.628 133.061 166.835 133.181 167.06 133.254C167.286 133.328 167.524 133.353 167.759 133.328H167.935L169.458 132.856C169.356 132.888 169.251 132.909 169.145 132.917C169.599 132.856 170.015 132.629 170.313 132.281C170.61 131.932 170.77 131.487 170.76 131.029V125.47C170.745 115.41 166.396 110.004 162.916 107.285Z" fill="#001A41"/>
<path d="M153.329 155.48C152.701 155.48 152.081 155.345 151.509 155.084L146.75 152.884C146.676 152.857 146.607 152.815 146.55 152.761C146.493 152.707 146.447 152.641 146.416 152.568C146.385 152.495 146.37 152.417 146.371 152.338C146.372 152.259 146.39 152.181 146.423 152.109C146.455 152.037 146.503 151.973 146.562 151.92C146.621 151.867 146.69 151.827 146.765 151.803C146.84 151.778 146.92 151.77 146.998 151.777C147.077 151.785 147.153 151.809 147.222 151.848L151.982 154.049C152.588 154.331 153.268 154.417 153.926 154.294C154.585 154.171 155.188 153.846 155.652 153.363L160.221 148.642C160.328 148.535 160.473 148.475 160.625 148.475C160.776 148.475 160.921 148.535 161.028 148.642C161.133 148.75 161.192 148.895 161.192 149.046C161.192 149.196 161.133 149.341 161.028 149.449L156.459 154.171C156.052 154.588 155.566 154.919 155.028 155.145C154.49 155.37 153.912 155.484 153.329 155.48Z" fill="#001A41"/>
<path opacity="0.5" d="M153.329 155.48C152.701 155.48 152.081 155.345 151.509 155.084L146.75 152.884C146.676 152.857 146.607 152.815 146.55 152.761C146.493 152.707 146.447 152.641 146.416 152.568C146.385 152.495 146.37 152.417 146.371 152.338C146.372 152.259 146.39 152.181 146.423 152.109C146.455 152.037 146.503 151.973 146.562 151.92C146.621 151.867 146.69 151.827 146.765 151.803C146.84 151.778 146.92 151.77 146.998 151.777C147.077 151.785 147.153 151.809 147.222 151.848L151.982 154.049C152.588 154.331 153.268 154.417 153.926 154.294C154.585 154.171 155.188 153.846 155.652 153.363L160.221 148.642C160.328 148.535 160.473 148.475 160.625 148.475C160.776 148.475 160.921 148.535 161.028 148.642C161.133 148.75 161.192 148.895 161.192 149.046C161.192 149.196 161.133 149.341 161.028 149.449L156.459 154.171C156.052 154.588 155.566 154.919 155.028 155.145C154.49 155.37 153.912 155.484 153.329 155.48Z" fill="black"/>
<path d="M147.999 151.285C147.999 151.725 147.869 152.155 147.624 152.521C147.38 152.886 147.033 153.171 146.626 153.339C146.22 153.508 145.773 153.552 145.342 153.466C144.91 153.38 144.514 153.168 144.203 152.857C143.892 152.547 143.68 152.15 143.594 151.719C143.509 151.288 143.553 150.841 143.721 150.434C143.889 150.028 144.174 149.681 144.54 149.436C144.906 149.192 145.336 149.062 145.775 149.062C146.365 149.062 146.931 149.296 147.348 149.713C147.765 150.13 147.999 150.695 147.999 151.285Z" fill="#001A41"/>
<path opacity="0.5" d="M147.999 151.285C147.999 151.725 147.869 152.155 147.624 152.521C147.38 152.886 147.033 153.171 146.626 153.339C146.22 153.508 145.773 153.552 145.342 153.466C144.91 153.38 144.514 153.168 144.203 152.857C143.892 152.547 143.68 152.15 143.594 151.719C143.509 151.288 143.553 150.841 143.721 150.434C143.889 150.028 144.174 149.681 144.54 149.436C144.906 149.192 145.336 149.062 145.775 149.062C146.365 149.062 146.931 149.296 147.348 149.713C147.765 150.13 147.999 150.695 147.999 151.285Z" fill="black"/>
<path d="M170.745 125.469V131.028C170.755 131.486 170.596 131.932 170.298 132.28C170 132.629 169.585 132.855 169.131 132.917C168.88 132.944 168.626 132.917 168.386 132.839C168.146 132.762 167.925 132.634 167.738 132.465C167.55 132.297 167.401 132.09 167.298 131.86C167.196 131.629 167.143 131.38 167.143 131.127V125.469C167.148 122.769 166.606 120.096 165.55 117.61C164.494 115.125 162.946 112.879 161 111.007C159.054 109.135 156.749 107.677 154.224 106.719C151.699 105.761 149.007 105.324 146.309 105.434C149.05 104.898 151.839 104.643 154.632 104.673H155.294C158.053 104.701 160.726 105.629 162.909 107.315C166.397 110.003 170.745 115.41 170.745 125.469Z" fill="#001A41"/>
<path opacity="0.5" d="M170.745 125.469V131.028C170.755 131.486 170.596 131.932 170.298 132.28C170 132.629 169.585 132.855 169.131 132.917C168.88 132.944 168.626 132.917 168.386 132.839C168.146 132.762 167.925 132.634 167.738 132.465C167.55 132.297 167.401 132.09 167.298 131.86C167.196 131.629 167.143 131.38 167.143 131.127V125.469C167.148 122.769 166.606 120.096 165.55 117.61C164.494 115.125 162.946 112.879 161 111.007C159.054 109.135 156.749 107.677 154.224 106.719C151.699 105.761 149.007 105.324 146.309 105.434C149.05 104.898 151.839 104.643 154.632 104.673H155.294C158.053 104.701 160.726 105.629 162.909 107.315C166.397 110.003 170.745 115.41 170.745 125.469Z" fill="black"/>
<path d="M162.186 230.229C162.186 230.229 158.5 240.38 171.674 244.949C171.674 244.949 175.977 238.629 171.674 233.458C167.372 228.288 162.186 230.229 162.186 230.229Z" fill="#001A41"/>
<path opacity="0.7" d="M162.186 230.229C162.186 230.229 158.5 240.38 171.674 244.949C171.674 244.949 175.977 238.629 171.674 233.458C167.372 228.288 162.186 230.229 162.186 230.229Z" fill="black"/>
<path d="M166.808 230.694C166.808 230.694 153.938 235.408 154.007 237.235C154.076 239.063 159.475 237.814 159.475 237.814L157.502 239.109C155.425 240.464 153.817 242.426 152.895 244.729C152.694 245.236 152.687 245.8 152.875 246.313C153.064 246.825 153.434 247.251 153.916 247.508L158.804 250.097C159.081 250.244 159.383 250.333 159.694 250.361C160.006 250.388 160.319 250.353 160.617 250.257C160.914 250.161 161.19 250.007 161.426 249.803C161.663 249.599 161.856 249.349 161.995 249.069C162.268 248.531 162.644 248.052 163.103 247.659C163.562 247.267 164.094 246.97 164.668 246.785C167.326 245.901 172.283 243.358 174.271 236.398L166.808 230.694Z" fill="#945959"/>
<path d="M170.669 165.304C170.669 165.304 163.816 169.112 167.456 180.671C171.096 192.231 177.926 210.164 177.926 210.164L162.186 230.23C163.868 230.433 165.488 230.988 166.94 231.859C168.393 232.73 169.645 233.898 170.616 235.286C171.546 236.698 172.127 238.31 172.311 239.99C172.495 241.67 172.277 243.37 171.674 244.95L191.215 219.82C193.022 217.498 194.221 214.762 194.705 211.859C195.189 208.957 194.942 205.979 193.986 203.196L185.61 178.737C184.586 175.749 182.884 173.039 180.639 170.818C178.393 168.597 175.663 166.926 172.664 165.936L170.669 165.304Z" fill="#001A41"/>
<path d="M54.9812 97.0204L24.6962 79.5059C24.3477 79.2643 23.9445 79.1134 23.523 79.0669C23.1015 79.0204 22.6751 79.0796 22.2823 79.2393C22.1995 79.2776 22.1204 79.3235 22.0462 79.3764L15.4592 83.2372H15.5049C14.6749 83.7093 14.1494 84.8059 14.1494 86.3746V120.063C14.1494 122.912 15.878 126.224 18.0178 127.458L48.3028 144.972C48.6871 145.25 49.1445 145.409 49.6183 145.429C50.0921 145.45 50.5614 145.331 50.9681 145.086C50.9475 145.095 50.9292 145.108 50.9148 145.125L57.4561 141.317C58.309 140.86 58.8496 139.748 58.8496 138.157V104.415C58.8496 101.567 57.1515 98.2541 54.9812 97.0204Z" fill="#001A41"/>
<path d="M57.7681 100.211C57.1554 98.908 56.1899 97.8027 54.981 97.0204L24.696 79.5059C24.3475 79.2643 23.9443 79.1134 23.5228 79.0669C23.1013 79.0204 22.6749 79.0796 22.282 79.2393C22.1993 79.2776 22.1202 79.3235 22.046 79.3764L15.459 83.2372C15.8619 83.0313 16.3137 82.9401 16.765 82.9737C17.2163 83.0072 17.6496 83.1643 18.0176 83.4276L48.3026 100.942C49.5526 101.759 50.5433 102.917 51.1582 104.278L57.7681 100.211Z" fill="#001A41"/>
<path d="M52.171 142.009C52.171 143.532 51.6837 144.591 50.9146 145.055L57.4559 141.248C58.3087 140.791 58.8494 139.679 58.8494 138.088V104.414C58.8172 102.948 58.4472 101.51 57.7681 100.211L51.1582 104.277C51.7929 105.538 52.1388 106.924 52.171 108.336V142.009Z" fill="#001A41"/>
<path opacity="0.3" d="M57.7681 100.211C57.1554 98.908 56.1899 97.8027 54.981 97.0204L24.696 79.5059C24.3475 79.2643 23.9443 79.1134 23.5228 79.0669C23.1013 79.0204 22.6749 79.0796 22.282 79.2393C22.1993 79.2776 22.1202 79.3235 22.046 79.3764L15.459 83.2372C15.8619 83.0313 16.3137 82.9401 16.765 82.9737C17.2163 83.0072 17.6496 83.1643 18.0176 83.4276L48.3026 100.942C49.5526 101.759 50.5433 102.917 51.1582 104.278L57.7681 100.211Z" fill="black"/>
<path opacity="0.6" d="M52.171 142.009C52.171 143.532 51.6837 144.591 50.9146 145.055L57.4559 141.248C58.3087 140.791 58.8494 139.679 58.8494 138.088V104.414C58.8172 102.948 58.4472 101.51 57.7681 100.211L51.1582 104.277C51.7929 105.538 52.1388 106.924 52.171 108.336V142.009Z" fill="black"/>
<path d="M43.2926 117.984C43.2926 122.347 41.564 123.832 38.9749 122.332C38.2607 121.925 37.6361 121.379 37.1388 120.724C36.6415 120.07 36.2817 119.322 36.0812 118.525C35.3197 119.461 34.1393 119.522 32.4793 118.563C29.7531 116.986 27.6057 113.232 27.6057 109.585C27.6057 105.937 29.7302 104.681 32.4793 106.264C33.8742 107.087 35.001 108.295 35.7233 109.744V108.305L38.5941 109.965V117.854C38.5514 118.27 38.6232 118.689 38.8017 119.066C38.9803 119.443 39.2588 119.764 39.6069 119.994C40.574 120.558 41.168 119.606 41.168 116.781C41.168 111.839 38.0002 106.599 33.3169 103.896C28.6337 101.193 25.4735 103.074 25.4735 108.161C25.5348 110.86 26.2786 113.5 27.6354 115.834C28.9923 118.168 30.918 120.121 33.2332 121.51C34.4902 122.284 35.9177 122.739 37.391 122.835L38.0687 125.462C36.3532 125.323 34.6955 124.778 33.2332 123.87C27.1411 120.345 23.1128 113.247 23.1128 106.82C23.1128 100.393 27.1792 98.063 33.3169 101.612C39.249 105.031 43.2926 111.877 43.2926 117.984ZM35.769 114.321C35.7838 113.356 35.5482 112.403 35.0851 111.555C34.622 110.708 33.9472 109.995 33.1265 109.486C31.6035 108.595 30.5146 109.219 30.5146 111.29C30.495 112.258 30.7251 113.213 31.1826 114.066C31.6401 114.918 32.3097 115.638 33.1265 116.156C34.6496 117.017 35.769 116.461 35.769 114.321Z" fill="#001A41"/>
<g opacity="0.9">
<path opacity="0.9" d="M43.2926 117.984C43.2926 122.348 41.564 123.832 38.9749 122.332C38.2607 121.926 37.6361 121.379 37.1388 120.724C36.6415 120.07 36.2817 119.322 36.0812 118.525C35.3197 119.461 34.1393 119.522 32.4793 118.563C29.7531 116.987 27.6057 113.232 27.6057 109.585C27.6057 105.937 29.7302 104.681 32.4793 106.265C33.8742 107.087 35.001 108.295 35.7233 109.745V108.305L38.5941 109.965V117.855C38.5514 118.27 38.6232 118.689 38.8017 119.066C38.9803 119.443 39.2588 119.764 39.6069 119.994C40.574 120.558 41.168 119.606 41.168 116.781C41.168 111.839 38.0002 106.6 33.3169 103.896C28.6337 101.193 25.4735 103.074 25.4735 108.161C25.5348 110.86 26.2786 113.5 27.6354 115.834C28.9923 118.168 30.918 120.121 33.2332 121.51C34.4902 122.284 35.9177 122.739 37.391 122.835L38.0687 125.462C36.3532 125.324 34.6955 124.778 33.2332 123.871C27.1411 120.345 23.1128 113.248 23.1128 106.82C23.1128 100.393 27.1792 98.0632 33.3169 101.612C39.249 105.031 43.2926 111.877 43.2926 117.984ZM35.769 114.321C35.7838 113.356 35.5482 112.403 35.0851 111.555C34.622 110.708 33.9472 109.995 33.1265 109.486C31.6035 108.595 30.5146 109.219 30.5146 111.29C30.495 112.258 30.7251 113.214 31.1826 114.066C31.6401 114.918 32.3097 115.638 33.1265 116.156C34.6496 117.017 35.769 116.461 35.769 114.321Z" fill="white"/>
</g>
<path d="M54.9812 157.012L24.6962 139.497C24.3482 139.254 23.9445 139.103 23.5225 139.058C23.1005 139.013 22.6739 139.075 22.2823 139.238C22.1995 139.276 22.1204 139.322 22.0462 139.375L15.4592 143.236H15.5049C14.6749 143.708 14.1494 144.805 14.1494 146.366V180.039C14.1494 182.895 15.878 186.2 18.0178 187.434L48.3028 204.948C48.6863 205.228 49.1439 205.388 49.6182 205.408C50.0924 205.429 50.5621 205.308 50.9681 205.062L50.9148 205.108L57.4561 201.263C58.309 200.813 58.8496 199.74 58.8496 198.102V164.398C58.8496 161.55 57.1515 158.245 54.9812 157.012Z" fill="#001A41"/>
<path d="M57.7681 160.202C57.1575 158.898 56.1915 157.792 54.981 157.012L24.696 139.497C24.348 139.254 23.9442 139.103 23.5223 139.058C23.1003 139.013 22.6737 139.075 22.282 139.238C22.1993 139.276 22.1202 139.322 22.046 139.375L15.459 143.236C15.861 143.028 16.3126 142.935 16.764 142.967C17.2155 143 17.6492 143.156 18.0176 143.419L48.3026 160.933C49.5546 161.752 50.5456 162.912 51.1582 164.276L57.7681 160.202Z" fill="#001A41"/>
<path d="M52.171 201.993C52.171 203.516 51.6837 204.574 50.9146 205.077L57.4559 201.231C58.3087 200.782 58.8494 199.708 58.8494 198.071V164.397C58.8171 162.934 58.4471 161.498 57.7681 160.202L51.1582 164.268C51.7927 165.526 52.1387 166.91 52.171 168.319V201.993Z" fill="#001A41"/>
<path opacity="0.3" d="M57.7681 160.202C57.1575 158.898 56.1915 157.792 54.981 157.012L24.696 139.497C24.348 139.254 23.9442 139.103 23.5223 139.058C23.1003 139.013 22.6737 139.075 22.282 139.238C22.1993 139.276 22.1202 139.322 22.046 139.375L15.459 143.236C15.861 143.028 16.3126 142.935 16.764 142.967C17.2155 143 17.6492 143.156 18.0176 143.419L48.3026 160.933C49.5546 161.752 50.5456 162.912 51.1582 164.276L57.7681 160.202Z" fill="black"/>
<path opacity="0.6" d="M52.171 201.993C52.171 203.516 51.6837 204.574 50.9146 205.077L57.4559 201.231C58.3087 200.782 58.8494 199.708 58.8494 198.071V164.397C58.8171 162.934 58.4471 161.498 57.7681 160.202L51.1582 164.268C51.7927 165.526 52.1387 166.91 52.171 168.319V201.993Z" fill="black"/>
<path d="M29.7755 172.066L22.4727 160.202V176.277L29.7755 172.066Z" fill="#001A41"/>
<path d="M36.5605 175.485L43.8481 188.103V172.051L36.5605 175.485Z" fill="#001A41"/>
<path d="M23.5767 159.661L31.0775 171.845C31.1092 171.872 31.1374 171.903 31.1612 171.937C31.1678 171.967 31.1678 171.998 31.1612 172.028L33.3924 175.653L35.281 174.762C35.3104 174.73 35.3436 174.702 35.38 174.678C35.4544 174.634 35.5377 174.608 35.6236 174.602L43.2387 171.03L23.5767 159.661Z" fill="#001A41"/>
<path d="M35.456 176.003L33.4151 176.963C33.3365 176.999 33.2506 177.018 33.1638 177.016C33.0587 177.017 32.9551 176.991 32.863 176.94C32.771 176.89 32.6936 176.816 32.6384 176.727L30.4072 173.102L23.0815 177.336L42.7969 188.713L35.456 176.003Z" fill="#001A41"/>
<g opacity="0.9">
<path opacity="0.9" d="M29.7755 172.066L22.4727 160.201V176.277L29.7755 172.066Z" fill="white"/>
<path opacity="0.9" d="M36.5601 175.485L43.8476 188.103V172.05L36.5601 175.485Z" fill="white"/>
<path opacity="0.9" d="M23.5767 159.661L31.0775 171.845C31.1092 171.872 31.1374 171.902 31.1612 171.936C31.1678 171.966 31.1678 171.998 31.1612 172.028L33.3924 175.653L35.281 174.762C35.3104 174.73 35.3436 174.702 35.38 174.678C35.4544 174.634 35.5377 174.608 35.6236 174.602L43.2387 171.03L23.5767 159.661Z" fill="white"/>
<path opacity="0.9" d="M35.456 176.003L33.4151 176.962C33.3365 176.999 33.2506 177.017 33.1638 177.015C33.0587 177.017 32.9551 176.991 32.863 176.94C32.771 176.889 32.6936 176.815 32.6384 176.726L30.4072 173.101L23.0815 177.335L42.7969 188.712L35.456 176.003Z" fill="white"/>
</g>
<path d="M54.9812 37.0592L24.6962 19.5447C24.3482 19.3018 23.9445 19.1507 23.5225 19.1054C23.1005 19.0602 22.6739 19.1222 22.2823 19.2858C22.1995 19.324 22.1204 19.3699 22.0462 19.4228L15.4592 23.2837H15.5049C14.6749 23.7482 14.1494 24.8524 14.1494 26.4134V60.0871C14.1494 62.9351 15.878 66.2476 18.0178 67.4813L48.3028 84.9958C48.6863 85.2756 49.1439 85.4358 49.6182 85.4561C50.0924 85.4764 50.5621 85.356 50.9681 85.1101L50.9148 85.1481L57.4561 81.3406C58.309 80.8913 58.8496 79.8176 58.8496 78.1804V44.423C58.8496 41.575 57.1515 38.2624 54.9812 37.0592Z" fill="#001A41"/>
<path d="M57.7681 40.2271C57.1576 38.9206 56.1917 37.8122 54.981 37.0288L24.696 19.5447C24.348 19.3018 23.9442 19.1507 23.5223 19.1054C23.1003 19.0602 22.6737 19.1222 22.282 19.2858C22.1993 19.324 22.1202 19.3699 22.046 19.4228L15.459 23.2837C15.861 23.0758 16.3126 22.9828 16.764 23.0151C17.2155 23.0473 17.6492 23.2035 18.0176 23.4664L48.3026 40.981C49.5546 41.7993 50.5456 42.9595 51.1582 44.324L57.7681 40.2271Z" fill="#001A41"/>
<path d="M52.171 81.9876C52.171 83.5106 51.6837 84.5691 50.9146 85.0336L57.4559 81.2261C58.3087 80.7768 58.8494 79.7031 58.8494 78.0659V44.4227C58.8171 42.9594 58.4471 41.5234 57.7681 40.2268L51.1582 44.2932C51.7927 45.5516 52.1387 46.9355 52.171 48.3444V81.9876Z" fill="#001A41"/>
<path opacity="0.3" d="M57.7681 40.2271C57.1576 38.9206 56.1917 37.8122 54.981 37.0288L24.696 19.5447C24.348 19.3018 23.9442 19.1507 23.5223 19.1054C23.1003 19.0602 22.6737 19.1222 22.282 19.2858C22.1993 19.324 22.1202 19.3699 22.046 19.4228L15.459 23.2837C15.861 23.0758 16.3126 22.9828 16.764 23.0151C17.2155 23.0473 17.6492 23.2035 18.0176 23.4664L48.3026 40.981C49.5546 41.7993 50.5456 42.9595 51.1582 44.324L57.7681 40.2271Z" fill="black"/>
<path opacity="0.6" d="M52.171 81.9876C52.171 83.5106 51.6837 84.5691 50.9146 85.0336L57.4559 81.2261C58.3087 80.7768 58.8494 79.7031 58.8494 78.0659V44.4227C58.8171 42.9594 58.4471 41.5234 57.7681 40.2268L51.1582 44.2932C51.7927 45.5516 52.1387 46.9355 52.171 48.3444V81.9876Z" fill="black"/>
<path d="M42.2636 67.5193C41.0985 65.6003 39.9258 63.7117 38.7607 61.7775C38.5759 61.4112 38.3175 61.0868 38.0018 60.8248C37.686 60.5627 37.3196 60.3686 36.9255 60.2545C36.3619 60.1403 35.7984 60.0108 35.2197 59.8433C35.0136 59.7574 34.8402 59.608 34.7247 59.4169C32.8182 56.1539 31.3025 52.6778 30.209 49.0604C30.1857 48.9831 30.1791 48.9017 30.1896 48.8216C30.2001 48.7416 30.2275 48.6646 30.2699 48.5959C30.6278 48.238 31.0314 47.9106 31.3969 47.5907C31.7625 47.2709 31.9528 46.5322 31.6863 45.5727C31.1228 43.5395 30.5821 41.5063 30.0186 39.4807C29.9096 38.9052 29.6509 38.3685 29.2686 37.9247C28.8863 37.4809 28.3938 37.1456 27.8407 36.9525C26.6127 36.6111 25.309 36.659 24.1094 37.0896C23.6449 37.2648 23.4012 37.6836 23.3936 38.407C23.5915 39.8006 23.721 41.1789 23.9875 42.5953C25.8659 52.8096 30.3842 62.2014 37.5423 70.7709C37.7292 71.055 37.9802 71.2913 38.2752 71.4606C38.5702 71.6299 38.9008 71.7276 39.2404 71.7456C40.4255 71.7174 41.564 71.2787 42.4616 70.5043C43.1393 69.8951 43.0708 68.8138 42.2636 67.5193Z" fill="#001A41"/>
<path d="M42.1728 57.1403C42.0135 54.95 41.4098 52.815 40.3985 50.8655C39.6434 49.3426 38.6826 47.9308 37.5429 46.6697C37.2459 46.3346 36.9946 46.228 36.8423 46.4793C36.69 46.7306 36.8423 47.0885 37.1316 47.4159L37.4286 47.7586C39.5334 50.1882 40.8599 53.194 41.2361 56.3864C41.2324 56.6193 41.2554 56.8518 41.3047 57.0794C41.4003 57.3413 41.5539 57.5782 41.754 57.7724C41.9139 57.8866 42.0966 57.7724 42.2261 57.7724C42.1804 57.4601 42.188 57.3002 42.1728 57.1403Z" fill="#001A41"/>
<path d="M35.2734 50.8883C36.2297 51.9401 36.8107 53.279 36.9259 54.6959C36.976 54.9113 37.0554 55.1188 37.1619 55.3127C37.6264 55.6934 37.8549 55.564 37.8549 55.0842C37.6921 53.2676 36.9408 51.5537 35.7151 50.203C35.4257 49.906 35.1896 49.8146 35.0526 50.0659C35.0033 50.2094 34.9979 50.3643 35.0373 50.5109C35.0766 50.6574 35.1588 50.7889 35.2734 50.8883Z" fill="#001A41"/>
<g opacity="0.9">
<path opacity="0.9" d="M42.2641 67.519C41.099 65.6 39.9263 63.7115 38.7612 61.7773C38.5764 61.4109 38.318 61.0866 38.0023 60.8245C37.6865 60.5625 37.3201 60.3684 36.926 60.2543C36.3624 60.1401 35.7989 60.0106 35.2202 59.8431C35.0141 59.7571 34.8407 59.6078 34.7252 59.4166C32.8187 56.1537 31.303 52.6776 30.2095 49.0602C30.1862 48.9829 30.1796 48.9015 30.1901 48.8214C30.2006 48.7413 30.228 48.6644 30.2704 48.5957C30.6283 48.2378 31.0319 47.9103 31.3974 47.5905C31.763 47.2707 31.9533 46.532 31.6868 45.5725C31.1233 43.5393 30.5826 41.5061 30.0191 39.4805C29.9101 38.9049 29.6514 38.3683 29.2691 37.9244C28.8867 37.4806 28.3943 37.1453 27.8412 36.9523C26.6132 36.6109 25.3095 36.6588 24.1099 37.0894C23.6453 37.2645 23.4017 37.6833 23.394 38.4068C23.592 39.8003 23.7215 41.1786 23.988 42.595C25.8664 52.8093 30.3846 62.2012 37.5428 70.7706C37.7296 71.0548 37.9807 71.2911 38.2757 71.4604C38.5706 71.6297 38.9013 71.7273 39.2409 71.7454C40.426 71.7172 41.5645 71.2785 42.4621 70.5041C43.1398 69.8949 43.0713 68.8136 42.2641 67.519Z" fill="white"/>
<path opacity="0.9" d="M42.1728 57.1396C42.0135 54.9493 41.4098 52.8143 40.3985 50.8648C39.6434 49.3419 38.6826 47.9301 37.5429 46.6689C37.2459 46.3339 36.9946 46.2273 36.8423 46.4786C36.69 46.7299 36.8423 47.0878 37.1316 47.4152L37.4286 47.7579C39.5334 50.1875 40.8599 53.1933 41.2361 56.3857C41.2324 56.6186 41.2554 56.8511 41.3047 57.0787C41.4003 57.3406 41.5539 57.5775 41.754 57.7717C41.9139 57.8859 42.0966 57.7717 42.2261 57.7717C42.1804 57.4594 42.188 57.2995 42.1728 57.1396Z" fill="white"/>
<path opacity="0.9" d="M35.2739 50.8881C36.2302 51.9399 36.8112 53.2788 36.9264 54.6956C36.9765 54.911 37.0559 55.1186 37.1624 55.3124C37.6269 55.6932 37.8554 55.5637 37.8554 55.084C37.6926 53.2673 36.9412 51.5535 35.7156 50.2027C35.4262 49.9058 35.1901 49.8144 35.0531 50.0657C35.0037 50.2092 34.9984 50.3641 35.0378 50.5106C35.0771 50.6572 35.1593 50.7886 35.2739 50.8881Z" fill="white"/>
</g>
<path d="M210.365 16.8649L217.501 20.9237V18.3955C217.501 18.2204 217.501 18.0376 217.501 17.8625C217.501 17.6873 217.501 17.5198 217.501 17.3522V17.2609C217.76 13.9179 220.295 12.6309 223.387 14.4205C224.787 15.2814 225.986 16.4316 226.905 17.7939C227.598 13.2249 231.307 11.6105 235.792 14.192C240.772 17.0705 244.808 24.0915 244.808 29.818V35.2247C244.801 35.6572 244.908 36.084 245.118 36.4622C245.328 36.8405 245.633 37.1569 246.004 37.3798L250.207 39.8394C251.114 40.3773 251.867 41.1415 252.39 42.0571C252.913 42.9728 253.19 44.0087 253.192 45.0633C253.193 45.5009 253.077 45.9307 252.859 46.3096C252.64 46.6885 252.325 47.003 251.946 47.2215C251.567 47.44 251.137 47.5547 250.699 47.5542C250.262 47.5537 249.832 47.4378 249.453 47.2184L210.472 24.6855C209.438 24.0849 208.579 23.2242 207.981 22.1889C207.382 21.1536 207.065 19.9797 207.061 18.7839C207.06 18.3968 207.162 18.0164 207.355 17.6809C207.547 17.3453 207.825 17.0664 208.16 16.872C208.495 16.6776 208.875 16.5747 209.262 16.5734C209.649 16.5722 210.03 16.6727 210.365 16.8649Z" fill="#E6E6E6"/>
<path d="M264.76 15.8065L269.946 18.7839V16.9259C269.946 16.7964 269.946 16.667 269.946 16.5375C269.946 16.408 269.946 16.2862 269.946 16.1644V16.1187C270.136 13.6895 271.979 12.7528 274.226 14.055C275.243 14.6783 276.115 15.5117 276.784 16.4994C277.294 13.1945 279.99 11.9989 283.249 13.8799C286.874 15.974 289.806 21.0608 289.806 25.2415V29.1784C289.809 29.4871 289.891 29.7897 290.046 30.0567C290.201 30.3236 290.423 30.5458 290.689 30.7014L293.735 32.491C294.398 32.8808 294.947 33.4374 295.328 34.1054C295.709 34.7734 295.908 35.5296 295.906 36.2985C295.905 36.6134 295.822 36.9228 295.666 37.1961C295.51 37.4694 295.285 37.6972 295.013 37.8571C294.742 38.017 294.434 38.1034 294.119 38.1079C293.804 38.1123 293.493 38.0346 293.217 37.8824L264.836 21.4949C264.084 21.0598 263.46 20.4347 263.025 19.6823C262.591 18.9298 262.362 18.0764 262.361 17.2076C262.361 16.9264 262.434 16.65 262.574 16.406C262.714 16.162 262.915 15.9589 263.158 15.8171C263.4 15.6752 263.676 15.5996 263.957 15.5978C264.239 15.5959 264.515 15.6679 264.76 15.8065Z" fill="#E6E6E6"/>
</svg>
